<svg version="1" xmlns="http://www.w3.org/2000/svg" width="390.667" height="390.667" viewBox="0 0 293.000000 293.000000"><path d="M236.7 95.1l-2.6 5.9 2.9 1.5c4 2.1 6.9 6.1 6.4 8.9-.2 1.2-2.8 8.1-5.8 15.2-7.1 16.9-7.3 18.1-4.2 22.7l2.5 3.7h-2.8c-5.7 0-7.8 3-17.1 24.3-2.3 5.4-5.1 10.4-6.1 11.1-1.9 1.3-6.9 1.4-10.7.2-2-.7-2.1-.4-5.9 9.2-.8 2 10.4 6.5 16.7 6.6 7.8.1 10.4-1.9 15.3-12.4 2.2-4.6 4-8.9 4.2-9.5.1-.5 1.3-3.5 2.7-6.7 1.4-3.1 2.9-6.5 3.2-7.6.4-1.1 1.6-2.8 2.7-3.8 1.7-1.5 2.6-1.6 5.9-.8 4.2 1.2 3.9 1.5 7.6-7.2 1.2-3 1.2-3.2-1.4-4.5-3.7-1.9-5.2-4-4.6-6.4.3-1.1 3.5-9.2 7.1-17.9 9.6-23.3 8.9-27.1-5.6-34.4l-7.9-4-2.5 5.9zM46.7 92.9c-7.1 3.5-9.6 5.6-11.4 10-2.1 4.8-1 9.9 4.7 22.6 4.3 9.4 8.1 20 7.8 21.8-.2 1.2-1.6 2.8-3.3 3.7l-3.4 1.7c-.2.1.7 2.9 2 6.3 1.8 4.5 2.8 5.9 3.9 5.4.8-.4 2.9-.9 4.7-1.2 4-.5 4.3.1 12.4 19.2 3.4 8.1 7.3 16.1 8.6 17.6 4.7 5.7 12.1 6 23.6 1.1l4.6-2-2.3-5.3c-1.8-3.9-2.9-5.2-4.2-5-7.6 1.1-9.7.9-11.3-.7-.9-.9-4.3-7.9-7.6-15.4-6.4-15-9.9-19.7-14.7-19.7h-2.9l2-2.8c2.3-3.3 2.2-10-.3-15.4-4.4-9.7-9.6-22.8-9.6-24.3 0-2.3 3.9-7.7 5.1-7 .5.4.9.1.9-.4 0-.6.7-1.1 1.5-1.1s1.5-.5 1.5-1.2c0-2.2-4.3-10.8-5.4-10.8-.6.1-3.7 1.4-6.9 2.9z"/><path d="M142.7 117.6c-.1.1-3.6.5-7.7.8-4.1.4-8.6.9-10 1.1-1.4.3-3.8.7-5.5 1-3.1.5-5.7 1.1-9.7 2.1-1.3.3-3 .7-3.8.9-.8.2-1.6.4-1.7.5-.2.2-.6.3-1 .4-3.8.8-13.3 4.5-19.8 7.7-11.3 5.6-14 9.4-9.4 13.5 2.3 2.1 2.8 2 19.4-5.4 8.5-3.8 19.8-7.3 27.5-8.7 1.9-.3 4.6-.9 6-1.2 4.4-.9 31.7-1.1 36.2-.2 2.3.5 6.3 1.1 8.7 1.4 6.5.9 23.4 6.7 33.1 11.4 4.7 2.2 9.5 4.1 10.7 4.1 2.5 0 5.3-3.4 4.8-5.8-.2-.9-.4-2-.4-2.4-.2-1.9-24-13-30.4-14.2-1.2-.2-3.5-.9-5-1.5-1.6-.6-3.2-.9-3.7-.6-.5.3-1.2 0-1.5-.6-.4-.5-1.3-.8-2-.5-.7.2-1.6.2-1.9-.2-.4-.3-1.2-.7-1.9-.8-.7-.1-2.8-.4-4.7-.7-6-1-25.9-2.5-26.3-2.1zM17.2 123.5c-2.9 1.3-6.3 3.6-7.7 5.1-3.8 4.1-3.3 8.5 2.5 22.1 5 11.7 5 11.8 3 13.5-1.1.9-2.5 1.8-3.1 2-.8.3 2.1 9.2 3.5 10.6.2.1 1.5-.3 3-.9 3.1-1.5 4.5-.2 7.2 7.1 3.8 10.3 8.4 18.7 11 20 3.5 1.9 9.4 1.5 14.9-.9 2.5-1.1 4.5-2.2 4.5-2.5 0-.2-.9-2.5-2-5-1.8-4.3-4.1-5.8-5.5-3.7-.6 1.1-4.4.6-5.7-.7-.4-.4-2.6-5-4.8-10.2-4-9.4-7.2-14-9.7-14-1 0-1.1-.5-.5-1.8 1.7-3.2.9-6.3-5.3-20.7-2.5-5.7-2.5-7.4.1-9.4 1.4-1.1 3-2.1 3.7-2.4.8-.2.6-1.6-.8-4.8-1-2.4-2.1-4.7-2.5-5.1-.3-.4-2.9.4-5.8 1.7zM270.5 121.8c-1 1-3.5 7.2-3.5 8.8 0 .7 1.4 2 3 2.9 3.7 1.9 3.8 3.9.7 10.8-4.7 10.2-6 14.6-5.4 18.1.4 2.8.2 3.5-1.8 4.4-2.3 1-7.4 10.4-10.5 19.4-1.5 4-4.5 5.9-7.5 4.7-3.5-1.4-4.1-1-6.2 4.1l-2.1 5 3.1 1.4c8.7 4 15 4 18.6.2 1.1-1.2 4.1-7.1 6.7-13.1 5.6-13.2 6.1-13.9 9.7-12.6 2.5 1 2.8.8 5-3.9 2.5-5.2 2.3-5.9-1.7-7.4-2-.7-1.7-3.1 1.1-9.5.9-2 1.7-4.1 1.9-4.6.1-.6 1.5-3.9 2.9-7.4 3.9-9.3 2.6-13.4-5.5-18.2-4.3-2.5-7.8-3.8-8.5-3.1z"/></svg>